/* XPM */
static char *_2eb0abdf93a43b6e7f4310fdc24d9aaUsVdqpw4FZYHkOhD[] = {
/* columns rows colors chars-per-pixel */
"32 32 135 2 ",
"   c #C2B8AF",
".  c #C3B9AF",
"X  c #C5B8AF",
"o  c #C0B6B4",
"O  c #C1B8B1",
"+  c #C3B9B0",
"@  c #C3B8B2",
"#  c #C3BAB3",
"$  c #C6B9B0",
"%  c #C4BAB0",
"&  c #C4BAB1",
"*  c #C5BBB1",
"=  c #C7BAB1",
"-  c #C4B9B3",
";  c #C6B9B3",
":  c #C4BBB2",
">  c #C5BBB2",
",  c #C7BDB1",
"<  c #C5BCB3",
"1  c #C6BCB2",
"2  c #C6BCB3",
"3  c #C7BDB3",
"4  c #C5BAB4",
"5  c #C4BBB4",
"6  c #C6BBB5",
"7  c #C5BAB6",
"8  c #C4BBB6",
"9  c #C3BCB4",
"0  c #C3BCB6",
"q  c #C5BCB5",
"w  c #C4BDB5",
"e  c #C6BDB4",
"r  c #C7BDB4",
"t  c #C7BEB5",
"y  c #C5BCB7",
"u  c #C4BDB7",
"i  c #C7BCB6",
"p  c #C6BDB6",
"a  c #C7BEB7",
"s  c #C8BBB2",
"d  c #C8BCB0",
"f  c #C9BDB1",
"g  c #C9BCB3",
"h  c #C8BEB2",
"j  c #C9BFB3",
"k  c #CABEB2",
"l  c #CBBFB3",
"z  c #C9BCB4",
"x  c #CABDB4",
"c  c #CABDB5",
"v  c #C8BEB4",
"b  c #C8BEB5",
"n  c #C9BFB5",
"m  c #CBBEB5",
"M  c #C8BDB7",
"N  c #C8BFB6",
"B  c #C9BFB6",
"V  c #CBBEB6",
"C  c #CDBFB4",
"Z  c #CCBFB6",
"A  c #CCBFB7",
"S  c #C6BDB8",
"D  c #C9BEB8",
"F  c #C8BFB8",
"G  c #CABFB9",
"H  c #CCC0B2",
"J  c #CAC0B4",
"K  c #CBC1B5",
"L  c #C9C0B7",
"P  c #CAC0B6",
"I  c #CAC0B7",
"U  c #CBC1B7",
"Y  c #CAC2B7",
"T  c #CCC0B4",
"R  c #CDC1B5",
"E  c #CEC2B4",
"W  c #CDC0B7",
"Q  c #CCC2B6",
"!  c #CDC3B7",
"~  c #CEC2B6",
"^  c #CFC3B7",
"/  c #C7C0B8",
"(  c #C9C0B9",
")  c #CAC1B8",
"_  c #CBC1B8",
"`  c #CBC3B8",
"'  c #CBC2B9",
"]  c #CBC0BA",
"[  c #CAC1BA",
"{  c #CBC2BB",
"}  c #CDC0B8",
"|  c #CEC1B8",
" . c #CEC1B9",
".. c #CCC2B8",
"X. c #CCC2B9",
"o. c #CDC3B9",
"O. c #CFC2B9",
"+. c #CCC3BA",
"@. c #CDC3BA",
"#. c #CEC4B8",
"$. c #CFC5B9",
"%. c #CDC4BB",
"&. c #CEC4BA",
"*. c #CEC4BB",
"=. c #CFC5BB",
"-. c #CAC1BC",
";. c #CCC3BC",
":. c #CDC4BD",
">. c #CEC5BC",
",. c #CFC5BC",
"<. c #CEC5BE",
"1. c #D0C4B6",
"2. c #D0C3BA",
"3. c #D0C4B8",
"4. c #D1C5B9",
"5. c #D3C7B9",
"6. c #D1C4BB",
"7. c #D0C6BA",
"8. c #D1C7BB",
"9. c #D2C6BA",
"0. c #D3C7BB",
"q. c #D1C4BC",
"w. c #D2C5BC",
"e. c #D0C6BC",
"r. c #D0C6BD",
"t. c #D1C7BD",
"y. c #D3C6BD",
"u. c #D1C7BE",
"i. c #D4C7BE",
"p. c #D2C8BC",
"a. c #D2C8BE",
"s. c #D3C9BF",
"d. c #D4C8BC",
"f. c #D5C9BD",
"g. c #D6CABE",
/* pixels */
"..n U ! _ .._ n . @ . . j j 1.! U ..j A U r S _ -./ D _ _ ....e.",
"_ U *.2...n n n 3 @ @ 3 s j 0.A n A l A U 3 r S U U _ ..;.e...*.",
"U U ! .._ n r 3 r ; ; z l 1.0.A j l l 1.3 @ r 7 n ! U e.>.;.....",
"_ *.e...D n r 3 n r j A A 1.2.n A 1.l ! 3 @ 5 z n ! ....-.-._ ..",
"e.e.a...r D r r ! n r n A 0...U A 2.! l s ; 5 7 ! 2._ >._ -.r U ",
"s.>...n n _ r U n n n n l 7..._ A A ! A 3 j n n A ..n .._ D r r ",
"7.n 7 j n r r A n n U ..! 1.r r x A n n n n r n ! ....D 7 S U 3 ",
"U 7 7 3 j 3 s A n ! ..n ! U r n A 1.j A ..A z n ..A ..D D r U r ",
"n 5 5 z A j ; j l ! ! ; n ..n _ U 3 3 U z n n s A l n D _ S _ U ",
"n r r @ s n j J H J 3 n _ *.U ..U 3 3 3 s n 3 A j A U D -.S >.e.",
"U S u 5 3 ! n U r 3 U n ....n n 3 3 ; 3 s n n s l A n ..>.-.>.e.",
"U r u 5 j ! U ; 3 j 3 n .._ 3 3 j 3 ; n j n ..s s n n D _ _ ....",
"J L 7 r r ..j ; 3 3 3 J U r ; U n j 7 3 U n U s j U 3 L _ _ _ S ",
"U U r r _ 2.n 7 ; 3 U 3 3 @ j A n n r r ....n j U U U L r r r # ",
"n ! A D -...n D 3 3 J 3 . . A A n A _ ..2...U _ U n J 3 3 3 @ @ ",
"L ! A n S U n 7 # # 3 # j j l A A ..! 2...r ..U U r @ . . . . 3 ",
"A ! l A _ D r U # 3 ; n j l 2...A *.! 2.n n D _ n n . . . . X J ",
"n A j .._ r r 3 3 ; r n l A 7.! n D l l s r ..j 3 ; ; . @ 3 J H ",
"n l j 1.r @ @ 3 r U n ..! ! q.n A l l l j n U @ 3 ; 3 ; ; 3 H ^ ",
"! l H ! 3 .   3 U U n ! A ! e.n ! l ! ! L U @ @ . j n j 3 U ! 1.",
"....! n 3 @ . 3 ! ! n n n ......! ..1.1.A n @ 5 ; n A j 3 3 J 7.",
"n ..! n 3 ; 3 n 1.U r n n ......! 2.A A n n r ; ; n ..3 3 U ! 5.",
"j ! n n z 7 j ! 7._ n D A ! z n n n n A A ; 3 ; 3 *.n n n _ ..7.",
"n A A n n n c 1.7..._ n n A j ..A n s s A s . @ U U n D ..! ! A ",
"A j l n n n ..7.a.*._ r S _ ..q.U 3 3 n j j ; X j . l A ! U ..! ",
"s j l A n n ..s.>.>.;._ _ t.e...U # @ 3 j j 3 ; s j j n n D U n ",
"s l A A A ..e.g.<.>.>.-.t.>._ ..U # # r j A ; j l j d n 3 3 r 3 ",
"c l 1.1.....7.2._ >.;.-.>._ r U U 3 7 7 ! ! A 7 ; ; d s n s n s ",
"s A 1.g...! ! 0.` ` -./ _ L S n U 3 r S _ ..n n 3 . s d n A A s ",
"l ! e.e.....1.7.` / L 3 r ; r n U n r 0 ..>.A z j s s d A s l s ",
"j 1.g.U A ..w.2.3 u 3 ; 5 @ j ..A ....-.;.>._ _ 7 3 s l l s s s ",
"! 0.a.; ....7.1.@ o O . ; 3 ! A _ 2..._ _ _ -.S r 3 x l A A s s "
};
