/* XPM */
static char *b5e4754721414bc4bd420de2da1f69a5ccKrbmVs6N8SQPkD[] = {
/* columns rows colors chars-per-pixel */
"32 32 138 2 ",
"   c #5F1D1F",
".  c #7F321E",
"X  c #4B1626",
"o  c #4F1D26",
"O  c #4C1929",
"+  c #551D25",
"@  c #5C1C25",
"#  c #541E2A",
"$  c #591F2B",
"%  c #641F22",
"&  c #562126",
"*  c #5C2226",
"=  c #55222A",
"-  c #5B232C",
";  c #5F2A2C",
":  c #642325",
">  c #6A2424",
",  c #642A25",
"<  c #6D2C25",
"1  c #632529",
"2  c #692728",
"3  c #64292A",
"4  c #6A2B2A",
"5  c #712624",
"6  c #732D25",
"7  c #7A2C22",
"8  c #712A28",
"9  c #6E3325",
"0  c #67302D",
"q  c #6C322A",
"w  c #743325",
"e  c #7A3424",
"r  c #753926",
"t  c #7A3A25",
"y  c #74342A",
"u  c #7A352A",
"i  c #733A29",
"p  c #7C3C2A",
"a  c #6A2F31",
"s  c #6D3230",
"d  c #7F4128",
"f  c #86391F",
"g  c #8C3B1E",
"h  c #903D1D",
"j  c #852F20",
"k  c #833522",
"l  c #883523",
"z  c #853A23",
"x  c #8C3C23",
"c  c #833A2B",
"v  c #8A3C29",
"b  c #923E23",
"n  c #813F33",
"m  c #94421E",
"M  c #8C4424",
"N  c #8E4926",
"B  c #83442D",
"V  c #8D422A",
"C  c #8F4B28",
"Z  c #944421",
"A  c #944423",
"S  c #974722",
"D  c #964623",
"F  c #904025",
"G  c #914025",
"H  c #934224",
"J  c #934225",
"K  c #934227",
"L  c #944024",
"P  c #954125",
"I  c #964124",
"U  c #964025",
"Y  c #954224",
"T  c #964325",
"R  c #944026",
"E  c #954127",
"W  c #914525",
"Q  c #904727",
"!  c #954524",
"~  c #974424",
"^  c #954625",
"/  c #974724",
"(  c #974426",
")  c #944224",
"_  c #984523",
"`  c #994722",
"'  c #984324",
"]  c #994425",
"[  c #9A4725",
"{  c #994626",
"}  c #994524",
"|  c #924825",
" . c #934A27",
".. c #944A24",
"X. c #9A4823",
"o. c #9C4823",
"O. c #984825",
"+. c #9A4B24",
"@. c #9B4B26",
"#. c #9C4A24",
"$. c #9C4A25",
"%. c #994925",
"&. c #924028",
"*. c #944028",
"=. c #964228",
"-. c #904629",
";. c #94442B",
":. c #96462B",
">. c #93432C",
",. c #95452A",
"<. c #994529",
"1. c #924C28",
"2. c #974F29",
"3. c #954A2D",
"4. c #944A2C",
"5. c #98492B",
"6. c #9A4B2C",
"7. c #984D2D",
"8. c #994C2E",
"9. c #9B4B2C",
"0. c #985028",
"q. c #9A5029",
"w. c #9B5229",
"e. c #9A502B",
"r. c #9A522A",
"t. c #9C512A",
"y. c #9C532A",
"u. c #9B512C",
"i. c #9B532D",
"p. c #9D512D",
"a. c #9D532E",
"s. c #9E522E",
"d. c #9F562D",
"f. c #914B31",
"g. c #914F35",
"h. c #9E5630",
"j. c #A0522C",
"k. c #A05734",
/* pixels */
"k.p.p.p.p.i.q.s B p.q.9.q.7.c 2.d.B ; 3.q.p.p.9.u 2 - 0 q.p.0.d.",
";.F M F F *.F e V Z b M x b K b b x 2 v K b x Z x k t . ;.M x ;.",
"5.) F K I ) K < x ;.b b ) b b Z b x 1 b M b M b Z _ x < Z ) Z <.",
"V v x x k 5 5 + < 7 7 % 7 g x 5 e u O 7 . l v x f 7 : 2 l e e c ",
"B p t 4 # w < 9 , w r i 9 * , t e w i r r t e & , t w w t 9 # 0 ",
"7._ o.v w o.W Z Z Z m Z ] 6 N ] @.X.#.] Z #.' y V m m _ ~ X.9 V ",
";.K ) j w ~ M b b b x b F e M b M ' b b F b Z e N x h b F ) 6 V ",
"9.) K > 9 ~ b b h ) x l b 6 z ) ) b ] v F K ) 6 z Z I K ) F < v ",
"p 6 8 - = w < 2 < w : * > + 3 w < 6 e 2 < 6 < = 3 w < 4 w * + q ",
"f.1.N  .O.u ; V c M  .N M M M e ; M M ,.M N O.Z W e O t M N M N ",
" .F K Z ) x c ~ b b Z x b h K x t K K ) ;.F ) K K x y ~ b ) b ;.",
"<.b b b K t r m K b h M x b ) x : l b K F Z K b x g 1 x ) x b ,.",
"V v z v f % + x x x x x x 5 e 7 X < 6 e k 5 k v k 1 * < l x v V ",
"B t e t t e >   @ + : % % @ @ % 9 = : t t y e p p i 9 9 r * , B ",
"q.@.] m O._ K b l w Z g g x b g m y C ~ @.5...~ ] ..) _ m < M @.",
" .b F x x b Z ) e w  .b b b b M K u g.W M b x b Z b b b b w M ;.",
"8.b K W ) I b x 7 w 7.v c 4.,.4.;.q n 8.7.3.Z K b K ) I b , 6 9.",
"p e e w w 2 7 < * - 4 + $ w y , 2 = 3 6 y y w 6 2 w w < > + * y ",
"f.M r V w * M F | M M e - M x N | 1.u 3 N O.N M M W e * N 1.M B ",
";.b F ' M t m ) W m g x t _ b Z Z b v y Z ) Z b x K x t Z ' F Z ",
";.b x ' x r K x Z b x z w Z b b b b x , c g x b h M x t ] b b b ",
";.Z I K z y I x 7 x ) v 2 f g ) v b x @ e h ) Z K x k 2 Z b x ;.",
"c w w < 4 = 9 < , * e , & * : 6 , 2 4 + , 6 < 5 > : @ + < w > 4 ",
"C p e 9 z W : q M M M  ...M - r Z N N z 7 o < 7 7 7 7 M N M M 3 ",
";.b F 5.Z b u  .b F b ) b ' w Z b Z b Z ) w F F h F g x ) x b y ",
":.F F W K ' . x ' b b Z ) K y x b b b F I 8 e b ) F Z g b Z Z 4 ",
"V v x x v 7 + : l z x x 7 2 $ 6 x v x k > O 6 b x z z f f > 7 3 ",
"i 3 - w t w 9 %   > > # @ % > r p t t w r r 3 * e p t e i y y i ",
";.z w @.W ;.] x b x l , e h b X.K Z K _ X._ x w _ X.Z Z m m I 9.",
";.x p ~ b Z b m m K ~ w z ) K b b b b b x l w t ~ b F b b b g ~ ",
",.6 q ~ b K F g e b b 2 9 _ b K K K ' ) b x   , Z x j b K ) m ;.",
"4 = - y 6 y y u - 4 2 = 1 u y y u y y u 4 - = - 4 2 - 1 y y y y "
};
