/* XPM */
static char *_1d76066e0cb462ea56a964b6911b8c6mhrgaFK2M532lfin[] = {
/* columns rows colors chars-per-pixel */
"32 32 114 2 ",
"   c #32343B",
".  c #393C42",
"X  c #3D4045",
"o  c #43464B",
"O  c #474A4F",
"+  c #444950",
"@  c #4A4D53",
"#  c #4E5157",
"$  c #4F5259",
"%  c #52555B",
"&  c #55585F",
"*  c #5B5C5E",
"=  c #565960",
"-  c #595C62",
";  c #5E616A",
":  c #646567",
">  c #61656B",
",  c #676A6F",
"<  c #6C6E74",
"1  c #6F7277",
"2  c #6F737A",
"3  c #737477",
"4  c #73757B",
"5  c #75787E",
"6  c #797A7E",
"7  c #7B7D84",
"8  c #7C8187",
"9  c #7F848A",
"0  c #848486",
"q  c #82868C",
"w  c #868B8F",
"e  c #8B8A8B",
"r  c #858A93",
"t  c #8B8E95",
"y  c #8C9097",
"u  c #8D919B",
"i  c #92959C",
"p  c #97989C",
"a  c #9E9A99",
"s  c #A8A19B",
"d  c #999CA3",
"f  c #9EA3AA",
"g  c #A3A3A6",
"h  c #AAA5A1",
"j  c #ACAAAC",
"k  c #B4ADA5",
"l  c #B3AFAE",
"z  c #ACAFB4",
"x  c #AFB2B7",
"c  c #B1B2B7",
"v  c #B9B4B0",
"b  c #BEB9B3",
"n  c #B4B9BD",
"m  c #B9BBBF",
"M  c #C4B7AF",
"N  c #C4B8AF",
"B  c #C0B6B4",
"V  c #C6BCB3",
"C  c #C9BEB4",
"Z  c #C5BEB9",
"A  c #C9BFB8",
"S  c #CBC1B6",
"D  c #C5C2BC",
"F  c #CCC2B9",
"G  c #D0C3B6",
"H  c #D0C6BA",
"J  c #D2C6BA",
"K  c #D1C5B9",
"L  c #D0C6BC",
"P  c #D0C6BD",
"I  c #D1C7BD",
"U  c #D1C7BE",
"Y  c #D1C5BB",
"T  c #D2C8BE",
"R  c #D4C8BC",
"E  c #D4C9BE",
"W  c #B9BDC0",
"Q  c #BABEC1",
"!  c #B9BCC3",
"~  c #B8BDC3",
"^  c #BABEC7",
"/  c #BAC2C5",
"(  c #BDC0C7",
")  c #BFC4C8",
"_  c #C0C0C0",
"`  c #C0C1C3",
"'  c #C6C5C3",
"]  c #C0C1C5",
"[  c #C2C2C4",
"{  c #C0C4C7",
"}  c #CBC3C0",
"|  c #CAC5C2",
" . c #CCC7C3",
".. c #C8C7C5",
"X. c #CFCCC7",
"o. c #C0C5CB",
"O. c #C2C5CA",
"+. c #C4C8CB",
"@. c #CFCDCE",
"#. c #D2CECD",
"$. c #D1D2CD",
"%. c #C8CBD0",
"&. c #CECFD4",
"*. c #D1CFD0",
"=. c #CFD0D5",
"-. c #CDD0D7",
";. c #CED1D6",
":. c #D0D1D6",
">. c #D3D4D8",
",. c #D3D4D9",
"<. c #D3D6DB",
"1. c #D2D7DB",
"2. c #D4D5D9",
"3. c #DEDFE3",
/* pixels */
"F C F S S F S S N V b N C C G F F F C S S V Z F F A S S F F F I ",
"F S F K F S S V V V N N C S J G S C C G C V V A F A S F F F F F ",
"S S F F F S V V V N N C C S R C C C C G C V V Z C S F K F F F F ",
"F F F F S V V S S S V S S G G C G S C G V B V V C F F F F F F F ",
"I T T F V Z V V S V S V F J F S G G G C V V V C C K F F D F V C ",
"T F F C S S V S S S V S S J F S C C G C V C C A F F C F F D V C ",
"K V V C C C V F S S S S S S V V C C C C C C A C C F F A V C F V ",
"F V V V C V V F S S F S S S V S C G C K K V V C F F F A A Z S V ",
"C V V V C C V C S G F C S S S S F V V C C C V C C C C V F V F F ",
"S V V V C C C C S C C C F  .( ` ` _ ..X.C C C C C F Z F F F F F ",
"F V V V V S S C V C C F ..O.^ / ! O.1.,.#.S C V C G C C F F F F ",
"S V b V S F S V V C D ;.+./ m x c 3.,.&.:.@.| D C C C F F F F F ",
"S S V V F F C C C V 1 u y q e 6 4 ] 2.,.;.O.n w Z S S V F F S Z ",
"F S V V F F C C V C o   # @ q q < 4 ! ;.! ! y r j F S S D V V V ",
"V F K A A F V Z D D o + & % > y 4 < q 8 o d u u u F C V V C N V ",
"S F F V V F | *.1.c + @ % $ $ 6 4 4 4 =   5 u u r b V N M N N B ",
"S G C S F Z $.&.+.t @ = - & & - < 4 6 < X - r u u f N N N N V C ",
"C C C F S Z h p 4 , % - x m ! { ] x w , + @ 7 u u p V V V V C S ",
"S S S S V V e > < 3 =   @ 8 7 0 f f q 2 $ o < t r j V V N C C S ",
"S C G S N M a > 4 4 *   O - # O , d r 4 = X ; q r v F C C S S G ",
"C G S C V B h % 4 4 % o & = % % = u t 6 , . > 7 1 N S S C S S G ",
"S F G C V V V * % > = + @ & & % @ q d 7 >   @ % l S S V N S S J ",
"C G S C C C C C e : & o @ % * = = 4 i 3 0 h s k V S S C S S G G ",
"S C F C C C A G J F C C C C C K A F V C C V M V S G V C F S F S ",
"C C G C C C S G T K F V Z F F F A V V C C C V M C C C S S S S S ",
"C C C C C S S T  .F F F F I K F C V V V C C V V V C C C S S F C ",
"V C G C S S T E  .F } F F T F F S V V Z C G V V C C M C S N C N ",
"C C G G F F J G F F F F F F V S S V V C C G C C N V C C C C C C ",
"C S S T F S S E F F D F F S V C C V V Z F F V C C M C M C S C C ",
"C F R T S S G J F C V V V V V C F C V Z F I C C C M C C C C C V ",
"C G E S S S R K V V V V V V C F A K F F F F F C C M C C C C C M ",
"S R H S F F J S V B b N V V S F A F F F F C F C C C C C C C C C "
};
