/* XPM */
static char *fa5a0336c3fb4ed09ed2088a7cd3287ai20aGiaKw7NlMJj3[] = {
/* columns rows colors chars-per-pixel */
"32 32 203 2 ",
"   c #0F0209",
".  c #1C0B09",
"X  c #150C12",
"o  c #02181D",
"O  c #1B1416",
"+  c #1C141A",
"@  c #171111",
"#  c #210F0D",
"$  c #260D06",
"%  c #2B120C",
"&  c #291614",
"*  c #211A1C",
"=  c #2B1D1D",
"-  c #271718",
";  c #341D12",
":  c #3C1F17",
">  c #36180D",
",  c #37221D",
"<  c #1F1C23",
"1  c #251D23",
"2  c #2A1F24",
"3  c #03253E",
"4  c #272125",
"5  c #2A2225",
"6  c #272229",
"7  c #2A242A",
"8  c #2D292D",
"9  c #352726",
"0  c #2D2A31",
"q  c #332C33",
"w  c #392F3A",
"e  c #373238",
"r  c #422B26",
"t  c #463636",
"y  c #5B423D",
"u  c #062D56",
"i  c #1A365E",
"p  c #363742",
"a  c #243C58",
"s  c #3D4049",
"d  c #3D485C",
"f  c #394966",
"g  c #344968",
"h  c #3A5976",
"j  c #47424C",
"k  c #474854",
"l  c #6F595B",
"z  c #57586A",
"x  c #455C7D",
"c  c #454C68",
"v  c #4F6179",
"b  c #596376",
"n  c #64646B",
"m  c #726D69",
"M  c #766C68",
"N  c #656777",
"B  c #7F7872",
"V  c #77706A",
"C  c #847D76",
"Z  c #867D78",
"A  c #84827C",
"S  c #8B837C",
"D  c #023785",
"F  c #023996",
"G  c #003BA9",
"H  c #013FBA",
"J  c #024097",
"K  c #335281",
"L  c #396290",
"P  c #0244AD",
"I  c #0244A3",
"U  c #064AB7",
"Y  c #336EB0",
"T  c #4A6B99",
"R  c #517396",
"E  c #4E6888",
"W  c #676D83",
"Q  c #63738A",
"!  c #4B6FA1",
"~  c #4C76AE",
"^  c #0045C3",
"/  c #0149C7",
"(  c #004DD3",
")  c #014EDA",
"_  c #0257D8",
"`  c #3B79C3",
"'  c #2979DF",
"]  c #005AE4",
"[  c #0964EE",
"{  c #0567E7",
"}  c #166DEC",
"|  c #186DE4",
" . c #046FF4",
".. c #0466F1",
"X. c #0A7AFD",
"o. c #1B7AF4",
"O. c #1E7EFF",
"+. c #1677F5",
"@. c #1A75EA",
"#. c #2175F5",
"$. c #267AF4",
"%. c #2B7EF5",
"&. c #247BFA",
"*. c #297DFC",
"=. c #2277F8",
"-. c #297CE6",
";. c #887C80",
":. c #798696",
">. c #798897",
",. c #78858D",
"<. c #5681AB",
"1. c #7B8FA5",
"2. c #778CA5",
"3. c #7E92AA",
"4. c #789AB8",
"5. c #6A91B1",
"6. c #3682CD",
"7. c #1785FE",
"8. c #0B93FF",
"9. c #2A85E8",
"0. c #2E83F6",
"q. c #2484FB",
"w. c #2E83FA",
"e. c #258CFE",
"r. c #2C8DFF",
"t. c #2587F2",
"y. c #3081F7",
"u. c #3384FA",
"i. c #368AFC",
"p. c #3C8CFF",
"a. c #2C92FF",
"s. c #3595FF",
"d. c #3C91FE",
"f. c #369CFF",
"g. c #318EEA",
"h. c #18A1FF",
"j. c #3CA0FF",
"k. c #4B80CC",
"l. c #4C8BD5",
"z. c #6092C7",
"x. c #699FDF",
"c. c #7CA1D8",
"v. c #438FE5",
"b. c #4699FE",
"n. c #4E99E6",
"m. c #4DABFF",
"M. c #46A5FF",
"N. c #58ABFF",
"B. c #79BAFC",
"V. c #76ACF2",
"C. c #8B8680",
"Z. c #928A82",
"A. c #9C938C",
"S. c #848D94",
"D. c #A0978E",
"F. c #A1998E",
"G. c #A29992",
"H. c #A09792",
"J. c #ADA59C",
"K. c #B3A89F",
"L. c #869BB0",
"P. c #979EB4",
"I. c #8896A3",
"U. c #A79AA3",
"Y. c #84A0B8",
"T. c #9CA7B1",
"R. c #99A7B5",
"E. c #97A1AA",
"W. c #A5A4A6",
"Q. c #B9AFA6",
"!. c #BAAFA9",
"~. c #B4ABA3",
"^. c #BAB0A7",
"/. c #B4B1AC",
"(. c #BCB3AB",
"). c #A5A9B8",
"_. c #B0AFBF",
"`. c #BBB7B4",
"'. c #ADB4BC",
"]. c #C1B6AD",
"[. c #C5BAAF",
"{. c #C1B3A6",
"}. c #C1B6B0",
"|. c #C5BCB3",
" X c #C9BEB4",
".X c #C7BEB9",
"XX c #CABFB9",
"oX c #D0BFB5",
"OX c #CCC1B6",
"+X c #C7C1BA",
"@X c #CDC2B9",
"#X c #C7C1B5",
"$X c #D1C3B7",
"%X c #D1C6BA",
"&X c #D1C5BB",
"*X c #D4C8BD",
"=X c #83A1C5",
"-X c #81A4DC",
";X c #B4BCD3",
":X c #BFC0D5",
">X c #BDCDE7",
",X c #CEC9CA",
"<X c #E8D4D3",
/* pixels */
"@X X@X@X@X@XOX#X|.}.|.[.|.[.$XOXOX@X XOXOX.X X.X+X.X X@X@X@X@X*X",
"@XOX@X@X@X#X X X}.|.|.|. X#X%X$XOX X XOX.X X|..X X@X@X@X+X@X@X@X",
"OXOX@X@XOXOX X|. X}.}. X XOX*X X X X X$X|.|.|.|.OXOX@X&X,X+X@X@X",
"@X@X@X@X#X X|. X#X X X@X$X$X%X X$XOXOX$X|.}.|..X X$X@X@XOX@XOX@X",
"*X,X@X@X X.X|. XOX X X X X&X$X XOX$X$XOX|.|.|. X X$X.X@X@X@X X X",
"*X@X@X X X@X XOXOX X X XOX&X@X@X XoXOXOX|. X X X$X@XOX@X.XOX X|.",
"@X#X.X X X X|. X X#XOX@X@X$X.X|. XXX X X X X X X.X@X@X.X.X X X|.",
"OX|.|.|. X|. X XOXOX@XOXOXOX X.X X$X X@X@X X X X@XOX@X.X X.X X#X",
"#X|.|. X X X[. XOXOX$X XXXXX X@X@X X X|. X X X X X.X.XOX.X X@X+X",
" X|.}.|.[. X#XOXoXOX(.'.T.R.L.2.2.3.>.:.:.:.2.L.I.,.R..X@X#X@X&X",
"#X[.`.~.).).S.>.>.Q v v b k . $ % # & = = = & # & ; f T.@X@X@X*X",
"OXc.t.9.l.~ T c j j r , 2 X   + 1 1 1 2 2 5 7 7 6 5 % L ,X@X@X+X",
"$X3...{ {  .X.7.7.f.! > 7 1 + O + * * 1 1 2 1 6 2 5 9 q 5.|. X X",
"#X/.e.q.t.o.} } [  .s.k r p 2 @ * * 1 1 2 1 1 1 8 8 q , f E. X}.",
"@XOXl.q.t.p.p.i.w.o.e.k.; @ X + 1 4 1 5 5 5 2 2 7 8 q e r T `.[.",
"OX@XT.X.{ o.' -.d.p.u.a.E C N 7 1 7 7 6 5 5 7 7 6 6 0 e t l =X|.",
"@X$X(.r.q.&.| | } } $.&.N.,X:Xb O 0 0 0 7 8 8 7 7 7 = , y S B.[.",
" XXX Xn.r.u.u.u.$.$.$.*.q.-X`.P.e < 0 0 8 q 8 * $ % e h 6.g.5.OX",
" X X XW.a.w.y.u.u.p.p.%.*.b.=X`.N X 6 0 5 & ; p h Y 9.h.n.|.OXOX",
"@X XOX@Xl.s.y.u.u.u.u.%.%.e.x.U.P.n 9 9 s E ` -.7.X.8.z.#X#XOX%X",
"@XOX@XOXJ.f.w.y.y.%.p.%.w.&.i.:X<X>Xc.` -.O.] ^ { 7.2. X X X#X$X",
" XOX[.^.|.T j.&.y.p.u.u.y.*.w.B.V.0.+...^ G F U t.:.OX X[.|.OX%X",
" XOXG.C A M b.M.=.*.u.u.%.u.p.@.] ( H G F D o F Q  XK.K.(.|.$X%X",
"OXOX^.C M C n l.m.*.=.%.u.i.} / ^ P G u u J i d C A.A.J.^.|.OXOX",
" X XOXK.C M C V R m.f.#.u.$.) ^ D o F I a z m S S S D.J.^.[.OXOX",
" X XOX[.^.F.S S S b v.N.s._ F ) P u g n C C C S Z.F.J.Q.(. X@X#X",
" X X XOX X#X X].K.^.Z.<.` N m h x A A.H.Z.F.D.G.J.K.^.].].|. X X",
" X X$XOX%X@X%X$X,X@X+X|.`.@X!.{.].~.~.~.(.{.!.!.].].[. X X|. X X",
" X X$X*X$XOXOX%X@X$XXX+X@XOX.X.X X X|.|. XOX X|. X[.[.[. X X X X",
" X$X%X*X X@X$X%X+X XXX.X X|. X XOX X.X XOX,X X.X|. X[.oX X X X[.",
" X$X,X$XOX@X@X%X|..X|.|.}. X X X.X$XXXXX@X@X@X+X X|.[. XoX[. X[.",
"OX*X&X X@XOX%XOX|.}.}.}.[. X$X$X.X@X@X@X@X.X@X#X X|. X X$XoX X X"
};
