/* XPM */
static char *_fbe5e27488a4d69fb21b655835e6e89gsD8nj4D38IPpa3U[] = {
/* columns rows colors chars-per-pixel */
"32 32 183 2 ",
"   c #020201",
".  c #0C0B03",
"X  c #0B0A09",
"o  c #161806",
"O  c #000A1E",
"+  c #151513",
"@  c #1D1A18",
"#  c #261A1C",
"$  c #392905",
"%  c #2F2E0C",
"&  c #1B1C20",
"*  c #0C1B30",
"=  c #2B2522",
"-  c #322D2D",
";  c #3B3933",
":  c #6D1000",
">  c #403A00",
",  c #722201",
"<  c #763D10",
"1  c #4B3E35",
"2  c #702F33",
"3  c #464100",
"4  c #534D01",
"5  c #595001",
"6  c #4F5110",
"7  c #51541D",
"8  c #4E4812",
"9  c #7D4311",
"0  c #775204",
"q  c #7A6702",
"w  c #7B7000",
"e  c #504124",
"r  c #545020",
"t  c #47423F",
"y  c #57473E",
"u  c #585739",
"i  c #7A482A",
"p  c #654D35",
"a  c #0C2D4F",
"s  c #323850",
"d  c #2F3245",
"f  c #012D6E",
"g  c #012770",
"h  c #4D3E41",
"j  c #37434F",
"k  c #1C466E",
"l  c #4E4946",
"z  c #514B43",
"x  c #57534B",
"c  c #5C5754",
"v  c #615A58",
"b  c #7E6D5D",
"n  c #726C67",
"m  c #7D7973",
"M  c #833600",
"N  c #9A4302",
"B  c #AF5717",
"V  c #916600",
"C  c #B56F00",
"Z  c #A47B01",
"A  c #8F5226",
"S  c #BA6626",
"D  c #CF5911",
"F  c #FE5B02",
"G  c #FD6303",
"H  c #FF6B00",
"J  c #FE7501",
"K  c #FE7C01",
"L  c #807060",
"P  c #857C79",
"I  c #857A74",
"U  c #876B60",
"Y  c #AE7C61",
"T  c #B97F71",
"R  c #AE7651",
"E  c #9F9C0F",
"W  c #89881E",
"Q  c #A09500",
"!  c #B4B006",
"~  c #9E9A2D",
"^  c #9E9E30",
"/  c #8B8821",
"(  c #9FA136",
")  c #AEAA32",
"_  c #FE8302",
"`  c #FFBD01",
"'  c #E4AA0A",
"]  c #DA9838",
"[  c #F48C38",
"{  c #F3903B",
"}  c #D8C90E",
"|  c #FEC500",
" . c #FFCB01",
".. c #FFD402",
"X. c #FADC02",
"o. c #FEE303",
"O. c #FFEB03",
"+. c #FFEB09",
"@. c #FEF203",
"#. c #FEFF02",
"$. c #FEF30A",
"%. c #FEFB0B",
"&. c #FFFF11",
"*. c #FFF92D",
"=. c #FDFF34",
"-. c #FFFB3D",
";. c #E6E53D",
":. c #B1845A",
">. c #8B837B",
",. c #878076",
"<. c #90877E",
"1. c #B38C71",
"2. c #D69747",
"3. c #E3934A",
"4. c #FFA946",
"5. c #CB8E76",
"6. c #FDAF64",
"7. c #FFFF52",
"8. c #F6C96D",
"9. c #FDC96B",
"0. c #FFD87D",
"q. c #F7C870",
"w. c #003490",
"e. c #003488",
"r. c #1A5B94",
"t. c #0A63B8",
"y. c #1C6BB0",
"u. c #1B78CB",
"i. c #0247E6",
"p. c #AE7183",
"a. c #54A191",
"s. c #8D8C87",
"d. c #928B83",
"f. c #998E88",
"g. c #979189",
"h. c #9B928B",
"j. c #A59D93",
"k. c #B1A494",
"l. c #B4ABA4",
"z. c #B8AEA5",
"x. c #B9B0A7",
"c. c #BBB3AA",
"v. c #BDB6B0",
"b. c #C19781",
"n. c #D5B39A",
"m. c #E4B69B",
"M. c #C1B6AE",
"N. c #C3B9AE",
"B. c #C5BCB3",
"V. c #C9BEB4",
"C. c #C6BDB9",
"Z. c #C9BEB8",
"A. c #C5B7B4",
"S. c #D0BFB8",
"D. c #EAB7A6",
"F. c #FEE185",
"G. c #CBC1B6",
"H. c #CCC2B9",
"J. c #C7C0B7",
"K. c #D1C5BB",
"L. c #D3C9BD",
"P. c #D5C2B7",
"I. c #ECC8AC",
"U. c #F9C9AE",
"Y. c #ECCDB2",
"T. c #E1C6B6",
"R. c #F2CCB3",
"E. c #EFD1B5",
"W. c #F1D2B6",
"Q. c #F6D7BA",
"!. c #FFE1BF",
"~. c #ECD0CF",
"^. c #FBDDC2",
"/. c #EDD1D2",
"(. c #F7DADC",
"). c #FFEBCE",
"_. c #FCE5C7",
"`. c #FDE7D8",
"'. c #FEF4D3",
"]. c #FEFEDC",
"[. c #FFFCE1",
"{. c #FFF3F4",
"}. c #F9EFE3",
/* pixels */
"H.V.H.H.H.G.G.G.B.B.A.N.V.V.P.H.H.H.V.G.H.J.C.J.J.H.G.G.H.H.H.K.",
"H.G.H.K.H.G.G.B.N.N.N.B.V.V.P.Z.V.G.V.S.J.C.C.V.H.J.H.H.H.H.H.H.",
"G.G.H.H.G.G.B.B.V.B.V.N.V.H.; X X X k.H.V.B.B.B.V.G.G.K.H.H.H.H.",
"H.H.H.H.V.V.B.G.G.V.N.<.z z 0 Q E ( ; y c B.v.V.V.H.H.H.H.H.H.H.",
"K.L.K.H.V.C.B.B.H.V.d.1 4 4  .#.%.=.W 7 8 P x.C.H.H.H.H.H.H.C.J.",
"L.H.H.C.J.H.V.G.G.V.  Z #.%.%.+.+.O.=.7.-.  m V.Z.H.G.H.H.J.V.C.",
"H.J.V.V.G.V.V.G.G.V.+ V $.%.+.$.$.O.$.%.%.;.r c G.H.H.Z.V.V.V.B.",
"H.V.B.B.V.B.B.V.H.H.@ w #. .+.X...$. .X.%.7.% x H.G.H.C.C.C.J.J.",
"V.V.B.V.V.V.V.j.>.>.6 ! @. .$...` $.....+.*./ u >.V.V.B.H.V.J.H.",
"G.v.C.v.V.V.N.; .   @.@.` $.$...| O.%.X.` O.=.)   G.V.G.G.J.H.K.",
"J.B.v.B.V.H.  Z @. .o...| |  . .|  .|  .o.O.=.^ . Z.Z.H.H.H.H.L.",
"H.J.B.J.G.P.n 8 w q N ] F.8.8.8.8.q.0.2.C o.=.~ X B.Z.H.H.H.H.H.",
"G.V.B.C.C.H.V.m -   2 m.{././.(.`./.{.p., @.=.)   H.V.J.H.J.H.C.",
"G.G.V.C.H.H.V.B.j.  T.).I.E.E.E.Y.E.`.T M o.=.~ X G.H.J.C.C.V.B.",
"G.K.H.V.H.H.C.C.d.  ^.x   _.].z   Q.[.T : M $ l z.G.V.B.B.V.v.B.",
"J.H.G.V.V.J.G.B.d.  Y.k.b Q._.1.L W.Q.m.5.5.# x V.V.V.M.A.M.M.B.",
"G.H.V.G.G.H.V.J.s.  n.].'.E.I._.'.W.R.Q.).'.z 1 Z.Z.B.N.N.N.V.V.",
"G.V.V.G.G.B.V.G.d.  5.Q.Q.W.W.W.R.W.E.I.m.U.1 l B.B.N.N.B.B.V.V.",
"V.V.V.P.V.B.B.B.N.z.= I `.P.U.R.T.P.U.!.D.@ n z.B.B.B.B.V.N.G.P.",
"G.G.G.H.B.v.N.B.Z.H.# < 4.[ U R { [ Y v 1 h.B.A.N.V.Z.V.B.V.G.P.",
"G.G.G.G.B.N.N.B.c.g.@ N J H - 9 J H i O + l.v.N.N.G.G.J.G.G.G.K.",
"G.H.G.G.B.B.B.G.<.  d S K J h A K J A j 1   m B.N.G.G.B.N.G.G.K.",
"V.H.G.V.B.B.J.H.g.  * B K J d i _ J p a =   P B.V.H.G.G.G.H.H.K.",
"G.V.V.G.V.G.G.K.g.  s.3.G G } ' G J D :.h.  P B.G.H.N.G.H.G.G.G.",
"G.V.G.V.V.V.G.P.g.  }.9.F H X.` F J G 9.}.. I M.V.V.V.V.G.G.H.G.",
"V.V.V.G.V.G.H.L.h.  H.6.G J d i _ H G 6.K.  P A.V.V.V.V.G.G.G.V.",
"N.G.G.G.G.H.L.L.H.x.+ k u.r.t.t.y.r.u.k + l.M.V.V.B.V.V.V.N.V.B.",
"V.V.G.P.H.H.K.K.H.H.P s w.i.f a g i.w.s I H.V.B.N.N.V.V.V.V.V.V.",
"G.G.K.L.G.G.H.P.H.H.J.c o a.o   . a.o v H.H.Z.V.N.N.N.V.V.Z.P.V.",
"V.G.K.K.G.G.G.L.H.Z.H.c 3 #.$   $ #.5 c H.H.Z.V.V.V.V.N.V.V.V.N.",
"G.G.L.G.G.G.L.K.B.C.B.x.,.% <.l.g.% ,.v.K.K.H.Z.V.V.V.V.V.V.V.N.",
"G.P.L.G.G.G.K.G.B.v.B.N.B.N.G.G.J.K.G.J.Z.V.H.B.V.V.V.V.S.V.V.V."
};
