/* XPM */
static char *b63d331074774b79ba14beffd22805c3JZNOvZbIqSstwngd[] = {
/* columns rows colors chars-per-pixel */
"32 32 185 2 ",
"   c #020101",
".  c #0A0A09",
"X  c #110D0C",
"o  c #191516",
"O  c #130D11",
"+  c #271C00",
"@  c #211B1B",
"#  c #2A2A0B",
"$  c #292405",
"%  c #342608",
"&  c #25231F",
"*  c #37341B",
"=  c #0B1725",
"-  c #1B252C",
";  c #192734",
":  c #242221",
">  c #2E2C2B",
",  c #2B2926",
"<  c #322E2C",
"1  c #3B3427",
"2  c #333230",
"3  c #3E3738",
"4  c #4F3F01",
"5  c #703604",
"6  c #731932",
"7  c #433B29",
"8  c #5C3F2D",
"9  c #413D3A",
"0  c #525219",
"q  c #544C03",
"w  c #7B6301",
"e  c #74710B",
"r  c #44413D",
"t  c #5D493E",
"y  c #67672B",
"u  c #1D1E4E",
"i  c #14324E",
"p  c #012557",
"a  c #363C47",
"s  c #23294B",
"d  c #4A4745",
"f  c #514A46",
"g  c #574844",
"h  c #575148",
"j  c #5B5A57",
"k  c #565251",
"l  c #63584A",
"z  c #785C4C",
"x  c #426F5A",
"c  c #65615A",
"v  c #6D6357",
"b  c #7A6A5B",
"n  c #477965",
"m  c #666460",
"M  c #6C6964",
"N  c #796765",
"B  c #756C65",
"V  c #79756E",
"C  c #8C2B00",
"Z  c #8B3712",
"A  c #873329",
"S  c #844F01",
"D  c #A9561E",
"F  c #AC560F",
"G  c #BF6600",
"H  c #B86617",
"J  c #A45423",
"K  c #C55700",
"L  c #FF5A00",
"P  c #C66111",
"I  c #EC6B08",
"U  c #FF6C00",
"Y  c #F66702",
"T  c #FE7302",
"R  c #FE7C01",
"E  c #804D4C",
"W  c #867467",
"Q  c #C37D4A",
"!  c #C07E72",
"~  c #9E8D01",
"^  c #9C9000",
"/  c #A08A01",
"(  c #A2A029",
")  c #A8A530",
"_  c #C59403",
"`  c #FE8200",
"'  c #ED9905",
"]  c #DDB201",
"[  c #FFA300",
"{  c #FFBD00",
"}  c #F8943C",
"|  c #F1893B",
" . c #DBCA00",
".. c #D2D411",
"X. c #FEC401",
"o. c #FECA01",
"O. c #EAD801",
"+. c #FED502",
"@. c #FFDB02",
"#. c #FEE302",
"$. c #FFEB04",
"%. c #FFE409",
"&. c #FEED0A",
"*. c #F1EB00",
"=. c #FFFE05",
"-. c #FFF40A",
";. c #FFFD0A",
":. c #FEF007",
">. c #FEFD15",
",. c #D4D027",
"<. c #EFF12C",
"1. c #FFF928",
"2. c #E4E132",
"3. c #FEFF3A",
"4. c #89837A",
"5. c #A48775",
"6. c #D4834B",
"7. c #D3977B",
"8. c #C5C040",
"9. c #FEFE43",
"0. c #FFFF4D",
"q. c #F6C96E",
"w. c #F7CA70",
"e. c #FACE72",
"r. c #013CBC",
"t. c #1A609E",
"y. c #0F5CA0",
"u. c #1D63A6",
"i. c #0261BB",
"p. c #1B6CB4",
"a. c #023DC7",
"s. c #0040CC",
"d. c #978E85",
"f. c #9C948B",
"g. c #A39B93",
"h. c #BE9B88",
"j. c #BEAA8F",
"k. c #ABA39C",
"l. c #AFA89E",
"z. c #B2A89E",
"x. c #B4ABA3",
"c. c #B6AFA9",
"v. c #B7ACA5",
"b. c #BBB1AB",
"n. c #BDB5B2",
"m. c #C5AA8B",
"M. c #D0AA8E",
"N. c #E5B89B",
"B. c #C2B9AF",
"V. c #C4B7AF",
"C. c #C2B7B2",
"Z. c #C6BCB3",
"A. c #C9BEB4",
"S. c #C9BFB9",
"D. c #C6BDB8",
"F. c #C7C0B6",
"G. c #CBC1B6",
"H. c #C7C2B9",
"J. c #CCC2B9",
"K. c #D1C6BB",
"L. c #D3C9BE",
"P. c #D8C3B5",
"I. c #EECAAF",
"U. c #E2C2AB",
"Y. c #FECCAD",
"T. c #ECCEB1",
"R. c #E6C5B5",
"E. c #F5CFB3",
"W. c #EDD2B4",
"Q. c #F2D1B5",
"!. c #F4D3B8",
"~. c #F9D7BC",
"^. c #FEE3B8",
"/. c #EFCAC1",
"(. c #FDDEC1",
"). c #EBCFD2",
"_. c #EFD3D2",
"`. c #F8DBDB",
"'. c #F6E6C9",
"]. c #FFE5C9",
"[. c #FEE2DF",
"{. c #FFFED6",
"}. c #FEF7D7",
"|. c #F9DCE0",
" X c #FFFEE3",
/* pixels */
"J.A.G.J.J.G.G.F.C.C.C.Z.Z.A.K.G.G.G.G.G.J.S.S.A.H.S.A.J.J.J.J.L.",
"J.G.J.K.J.G.G.A.Z.C.Z.Z.A.A.L.G.G.G.A.G.A.Z.D.A.A.J.G.J.H.J.J.J.",
"G.G.J.J.J.G.Z.Z.Z.Z.D.D.A.G.h . . . d.G.A.Z.Z.Z.S.G.J.K.K.H.J.J.",
"J.J.J.J.D.G.Z.Z.A.A.Z.k.t f y ( ^ / 7 g d V.Z.D.A.G.K.J.H.J.J.J.",
"L.L.L.G.Z.S.Z.D.S.D.f.h 0 0 2.1.=.=./ q q M k.S.A.K.J.J.H.J.S.S.",
"L.J.J.G.G.G.Z.G.D.D.: e 0.0.>.#.&.&.;.=.@.+ c F.J.J.A.J.S.J.A.A.",
"J.D.D.Z.A.A.Z.G.k.o ) <.-.>.&.&.:.&.=.-.X.+ B A.A.J.J.S.D.S.D.Z.",
"G.Z.Z.Z.A.Z.A.G.n.  ,.3.$.o.%.%.+.&.+.@.$.  4.Z.J.G.J.A.D.A.A.A.",
"A.Z.Z.D.G.A.A.g.V 0 ,.1.+.o.&.#.{ &.@.+.$.e l 4.4.A.D.G.G.H.D.G.",
"G.D.C.Z.A.G.A.7 # 0.;.+.X.-.-.@.X.$.-.%.{ =.e     f.G.G.G.H.J.K.",
"G.Z.Z.C.Z.G.A.f # 9.>.#.+.o.o.X.X.o.o.X.X.#.+.+.@.% G.G.J.J.L.J.",
"G.F.D.Z.G.G.G.d # 9.>.] H w.w.w.w.w.w.e.e.G S w w h A.G.J.J.J.H.",
"G.Z.D.D.A.J.Z.r # 9.>._ 6 ).|._.`._._.`.[.! O O 3 G.G.F.J.J.G.S.",
"G.G.D.A.J.J.Z.f # 9.>._ A R.(.Q.T.Q.W.T.W. Xv < G.G.G.G.S.D.D.C.",
"G.G.G.A.J.G.A.b.d.+ 5 C Z T.}.W   P. X5.  Q.W < G.G.F.Z.Z.Z.V.V.",
"J.J.G.S.G.A.S.D.c.  z 7.M.I.'.m.b T.'.M.b '.v > G.F.Z.B.C.V.V.Z.",
"G.G.A.G.J.A.F.G.g.  h. X].Q.I.(.}.!.I.(.}.}.l : S.A.B.V.Z.B.F.G.",
"G.G.A.G.G.Z.D.Z.k.  5.Y.N.Q.!.E.E.Q.Q.Q.E.~.t > A.Z.V.V.B.Z.A.G.",
"A.G.G.G.Z.Z.Z.Z.Z.v.: z ].Y.R.P.R.Y.R.!.R.2 M c.Z.Z.Z.Z.V.A.G.G.",
"G.G.G.G.Z.V.V.Z.A.J.z.c h N 6.} | N Q } |   d.n.V.A.A.A.A.F.G.P.",
"G.K.G.G.Z.V.V.Z.J.K.b.M   ; K T L ; F T U % k f.V.G.G.F.B.F.G.P.",
"A.G.G.A.A.Z.Z.G.J.G.& @ k a P R I a D R U z = @ Z.G.G.Z.F.F.G.P.",
"A.G.G.A.A.A.A.G.K.G.< O 3 i H ` I u J ` U 8 . , Z.J.G.Z.G.G.K.J.",
"G.A.A.G.A.G.A.G.K.G.2 r m.D I T R ..' L T m.d > G.J.F.G.J.G.G.G.",
"G.A.F.A.A.Z.J.K.L.J.> M }.` U U R *.[ L T {.V : A.B.A.G.G.G.G.G.",
"A.A.A.G.A.G.J.L.L.J.2 j ].R U T I s J R U ^.m < A.A.A.G.G.G.G.A.",
"V.A.G.G.G.G.L.L.J.J.n.m - p.u.t.p.i.y.u.p.- j v.A.A.V.A.Z.G.Z.Z.",
"A.G.P.P.J.J.L.G.J.L.H.c.m p a.r.p p r.s.p c z.Z.A.V.A.A.G.B.A.A.",
"A.G.J.L.J.G.G.L.H.J.J.H.J.  n n     x n   S.S.Z.V.V.A.V.A.A.G.A.",
"A.G.L.L.G.G.P.K.J.H.J.Z.z.  O.O.     .#.  x.G.Z.A.A.A.A.A.A.A.V.",
"A.P.L.G.G.G.K.K.S.Z.Z.Z.V.x.* 7 x.v.r * c.J.A.G.A.A.A.A.A.A.A.V.",
"G.K.K.F.G.G.K.G.C.V.C.C.Z.C.G.G.G.G.G.G.J.A.J.G.V.A.A.A.A.A.A.A."
};
