/* XPM */
static char *ff2ac540690942af84c524789f12a7331eOBGC6dS2OODADd[] = {
/* columns rows colors chars-per-pixel */
"32 32 190 2 ",
"   c #020202",
".  c #0A0906",
"X  c #0B0B09",
"o  c #100E01",
"O  c #1B1B04",
"+  c #050D10",
"@  c #1E1716",
"#  c #171717",
"$  c #351F12",
"%  c #271811",
"&  c #1C2011",
"*  c #282506",
"=  c #382903",
"-  c #28251B",
";  c #3E3C13",
":  c #0B1D31",
">  c #1B1C21",
",  c #172434",
"<  c #322D2B",
"1  c #302728",
"2  c #38342B",
"3  c #212433",
"4  c #3B3935",
"5  c #2B2B2D",
"6  c #6C0F00",
"7  c #6D3610",
"8  c #463D39",
"9  c #523726",
"0  c #6E3232",
"q  c #2D493B",
"w  c #524F02",
"e  c #584F00",
"r  c #555000",
"t  c #484714",
"y  c #51541D",
"u  c #795203",
"i  c #67671D",
"p  c #545120",
"a  c #5A5139",
"s  c #7F452D",
"d  c #774B29",
"f  c #674B33",
"g  c #001443",
"h  c #002953",
"j  c #342B46",
"k  c #243346",
"l  c #01276E",
"z  c #002F75",
"x  c #0D3676",
"c  c #325446",
"v  c #1C486F",
"b  c #4D4A45",
"n  c #524E49",
"m  c #534A42",
"M  c #59544F",
"N  c #5D5047",
"B  c #5D5855",
"V  c #6F5A4E",
"C  c #6D6665",
"Z  c #7D6D60",
"A  c #7E7973",
"S  c #7D766E",
"D  c #873801",
"F  c #9B4400",
"G  c #834411",
"H  c #AC5716",
"J  c #875228",
"K  c #BA6725",
"L  c #CE5914",
"P  c #FF5C00",
"I  c #D07000",
"U  c #FE6402",
"Y  c #FE6D02",
"T  c #FE7401",
"R  c #FD7B01",
"E  c #836D5F",
"W  c #AD7956",
"Q  c #817467",
"!  c #837C77",
"~  c #847A77",
"^  c #967860",
"/  c #B47B77",
"(  c #9E9908",
")  c #89881D",
"_  c #9A9A16",
"`  c #B09C17",
"'  c #B1AB05",
"]  c #9B9B2C",
"[  c #848327",
"{  c #A09E2D",
"}  c #9FA136",
"|  c #A5A32D",
" . c #B2AF35",
".. c #FF8300",
"X. c #F09D1D",
"o. c #E8A906",
"O. c #FFAE00",
"+. c #FEB402",
"@. c #FFBA04",
"#. c #FEB80F",
"$. c #F68D3A",
"%. c #FAA025",
"&. c #DEDF00",
"*. c #D7C90E",
"=. c #FEC100",
"-. c #FFCC02",
";. c #FFD402",
":. c #FFDC00",
">. c #F4DE00",
",. c #FFEC03",
"<. c #FEED09",
"1. c #FDE407",
"2. c #FEF403",
"3. c #FFFF03",
"4. c #FEF20A",
"5. c #FEFA0A",
"6. c #FFFF11",
"7. c #D7D930",
"8. c #FFEF23",
"9. c #FFFA2D",
"0. c #E6E53C",
"q. c #FEFE35",
"w. c #FEFD3A",
"e. c #8C857E",
"r. c #898179",
"t. c #90857F",
"y. c #BC8461",
"u. c #A9937C",
"i. c #E5924C",
"p. c #FDA947",
"a. c #CE8272",
"s. c #CB936E",
"d. c #F9B063",
"f. c #FFFF52",
"g. c #E6EA4D",
"h. c #FFC56D",
"j. c #00368C",
"k. c #195B94",
"l. c #055EB8",
"z. c #1C6DB6",
"x. c #0F65B8",
"c. c #0245DC",
"v. c #1A76CB",
"b. c #0147E5",
"n. c #52A092",
"m. c #8E8A86",
"M. c #928B85",
"N. c #9A9189",
"B. c #9F9A94",
"V. c #A69F95",
"C. c #ABA499",
"Z. c #B3A38C",
"A. c #B5AAA4",
"S. c #BDB4AC",
"D. c #B8B1A7",
"F. c #D1AB88",
"G. c #E3B89D",
"H. c #C3B9AF",
"J. c #C4B7AE",
"K. c #C5BCB3",
"L. c #C9BEB4",
"P. c #C7BDBA",
"I. c #C9BFB9",
"U. c #C2B6B1",
"Y. c #D0BFB8",
"T. c #E2B1A3",
"R. c #CBC1B6",
"E. c #CCC2B9",
"W. c #C7C0B7",
"Q. c #D2C6BB",
"!. c #D3C9BD",
"~. c #EBC7AC",
"^. c #FDCAAF",
"/. c #ECCEB2",
"(. c #E4C6B7",
"). c #F2CEB3",
"_. c #F2CBB7",
"`. c #EFD0B3",
"'. c #F2D1B5",
"]. c #F9D6BB",
"[. c #F2D5B8",
"{. c #F6DBC4",
"}. c #FEDFC2",
"|. c #EED1D3",
" X c #FBE5C7",
".X c #FCEDD5",
"XX c #FCE5DB",
"oX c #FFFEDE",
"OX c #FEF3D5",
"+X c #FDEFEF",
/* pixels */
"E.L.R.E.E.R.R.R.K.U.K.K.L.K.R.Q.R.R.L.R.E.W.P.W.E.W.L.E.R.E.E.!.",
"E.R.E.Q.E.R.R.K.H.K.U.K.K.R.Q.R.R.R.L.R.W.P.P.L.E.W.E.E.E.E.E.E.",
"R.R.E.E.E.W.L.K.H.L.K.K.L.R.2 . . . Z.E.W.L.U.L.L.R.E.Q.E.E.E.E.",
"E.E.E.E.L.R.K.K.I.K.K.8 m m u ( _ } 8 m B S.K.L.L.R.E.E.E.E.E.E.",
"E.!.!.E.L.P.K.K.E.S.B t w w -.3.5.q.) y t ~ D.P.R.E.R.E.P.E.W.W.",
"!.E.E.P.L.E.L.R.K.S . w.3.5.5.<.<.,.q.f.w.  S P.R.E.R.E.W.E.L.P.",
"E.E.L.L.L.L.L.R.M p 0.<.2.5.<.<.4.,.4.5.5.0.p M R.E.E.R.K.P.L.L.",
"E.K.K.K.L.K.K.R.b ; g.' 3.-.<.1.;.4.-.:.6.f.; b E.R.E.P.P.P.L.L.",
"L.P.U.L.L.L.L.e.a ) _ ' <.-.4.;.@.2.;.;.<.9.) a e.L.L.P.E.L.W.E.",
"R.K.S.K.K.L.L.   .7.2.3.=.4.4.;.=.<.5.;.@.,.q. .  R.W.L.E.W.E.Q.",
"E.W.P.K.L.R.I.. | 8.+.+.O.O.O.O.+.+.@.+.;.,.w.{ . E.L.R.E.E.E.E.",
"E.W.S.K.E.R.L.X ] ` I X.@.@.@.#.%.#.#.+.o.:.q.{ . K.I.E.E.E.E.E.",
"R.W.K.K.W.E.L.  i O 0 T.OX[._.{.XX|.+X/ D ,.w.|   R.R.R.W.E.E.P.",
"E.L.K.L.E.E.L.X [   (.'..X~.)./.).~.'./ D 1.q.]   R.W.R.W.P.K.U.",
"R.E.E.P.E.E.I.A.<   ].'.N    XoXa   ].y.6 F = - V.R.L.K.K.K.K.U.",
"L.Q.L.I.L.W.E.K.!   /.`.Z.Z ]. Xu.Z [.G.s.a.% 4 R.K.K.H.H.H.U.K.",
"R.R.L.R.R.E.R.R.e.  s./.oXOX).). XOX'.{.}.F.7 4 I.L.K.J.H.H.K.L.",
"R.R.L.R.R.K.K.L.M.  Z ].[.).'.'./.'.[.~.G.s.f m L.K.H.H.K.K.L.L.",
"L.Y.R.R.L.U.K.K.L.S.< - ^ XXY.^._.(.Q.^.~.V @ C K.L.K.K.J.L.R.R.",
"R.R.R.E.W.S.H.K.L.Q.8 @ G p.$.E W $.$.W d 9 M.U.J.L.L.L.L.L.R.Q.",
"R.R.R.R.K.H.H.K.Y.S.< @ F R Y < D T Y d 7 % A.D.H.L.R.R.L.L.R.R.",
"R.R.R.R.K.K.K.R.R.t.# k K R T 8 J R R d a 4   ~ K.R.R.L.L.R.R.Q.",
"L.R.R.L.K.K.R.E.E.m.+ : H ..T j J R T f 1 @   ~ K.E.R.H.R.Q.R.Q.",
"R.R.L.R.L.R.L.E.!.M.5 m.i.U Y *.o.P T L N.C   ~ R.E.L.R.E.R.R.R.",
"L.L.R.L.L.L.R.Q.!.m.M +Xh.P Y >.@.P T U .XC.  ! L.L.L.R.R.R.R.R.",
"L.L.L.R.L.R.R.!.E.m.< E.d.U R j s R T P Q.b . ! K.L.L.R.R.R.R.L.",
"L.L.R.L.R.R.!.!.E.P.D., z.k.l.x.z.k.v.v # # C.J.L.L.J.L.L.H.L.L.",
"L.L.R.Q.Q.R.Q.Q.E.E.E.C x c.z h l b.j.g 3 A L.K.K.J.L.L.L.L.K.L.",
"L.R.Q.Q.R.R.R.!.E.E.E.B.2 c q   . n.& X B Q.I.L.L.J.J.L.L.R.L.L.",
"L.R.Q.Q.R.R.Q.Q.E.W.W.N.n r &.O = 3.r * B !.P.L.L.L.L.J.L.L.L.L.",
"L.Q.!.R.R.R.Q.Q.L.P.K.K.D.r.* e.e.* O S S.E.R.L.L.J.L.Y.L.L.L.J.",
"R.Q.Q.L.Q.R.Q.R.U.U.J.H.H.L.R.E.W.Q.E.E.E.I.E.R.L.L.J.L.L.Y.L.L."
};
