/* XPM */
static char *_3c643e1b711489996890e02571991e5SNYW2fdiVx6EL4Ss[] = {
/* columns rows colors chars-per-pixel */
"32 32 176 2 ",
"   c #020202",
".  c #080806",
"X  c #0B0A09",
"o  c #100C00",
"O  c #141605",
"+  c #1C1C12",
"@  c #171718",
"#  c #211D1A",
"$  c #3B191A",
"%  c #372707",
"&  c #3D3D14",
"*  c #29260F",
"=  c #0A1D2C",
"-  c #332927",
";  c #39312F",
":  c #3C3931",
">  c #402804",
",  c #433D02",
"<  c #7C390C",
"1  c #483D3B",
"2  c #533627",
"3  c #524E02",
"4  c #575200",
"5  c #484713",
"6  c #51541D",
"7  c #785303",
"8  c #525121",
"9  c #44423E",
"0  c #5B5739",
"q  c #765337",
"w  c #002653",
"e  c #253445",
"r  c #35384C",
"t  c #002B6E",
"y  c #1C4670",
"u  c #18486E",
"i  c #4E4A45",
"p  c #514945",
"a  c #58544D",
"s  c #5B5551",
"d  c #5E5956",
"f  c #765848",
"g  c #625D5A",
"h  c #6C635E",
"j  c #7E7872",
"k  c #7C7771",
"l  c #863601",
"z  c #883702",
"x  c #863900",
"c  c #8A3903",
"v  c #8B3D0A",
"b  c #8C400C",
"n  c #9C4400",
"m  c #924A18",
"M  c #A7570A",
"N  c #AD5818",
"B  c #9B5727",
"V  c #BD7E33",
"C  c #B86725",
"Z  c #CB5B13",
"A  c #FF5700",
"S  c #C76710",
"D  c #FC6401",
"F  c #FF6B01",
"G  c #F47405",
"H  c #FD7501",
"J  c #FD7901",
"K  c #FE7C0C",
"L  c #DE7B28",
"P  c #AF744A",
"I  c #B07547",
"U  c #BD7E53",
"Y  c #857C79",
"T  c #817C74",
"R  c #9E9909",
"E  c #8A881F",
"W  c #9D9B2C",
"Q  c #A09D2C",
"!  c #A09D32",
"~  c #9FA136",
"^  c #A6A82E",
"/  c #B1AE34",
"(  c #D69200",
")  c #F98903",
"_  c #E4A300",
"`  c #FEBE01",
"'  c #C3873C",
"]  c #FA983B",
"[  c #F7872A",
"{  c #DFA335",
"}  c #FFC401",
"|  c #FECC02",
" . c #FFD302",
".. c #FFDB02",
"X. c #FEDE19",
"o. c #FCE302",
"O. c #FEEC02",
"+. c #FFE60D",
"@. c #FFEC09",
"#. c #FFF205",
"$. c #FEFF03",
"%. c #FEF30B",
"&. c #FEFB0B",
"*. c #FFFF11",
"=. c #FEFB2B",
"-. c #E6E53A",
";. c #FEFE35",
":. c #FFFD3A",
">. c #B2855B",
",. c #8C837D",
"<. c #89857C",
"1. c #91887F",
"2. c #CB9044",
"3. c #E59349",
"4. c #DEAB58",
"5. c #FEA058",
"6. c #FBAF61",
"7. c #FDB062",
"8. c #FEFF52",
"9. c #FFC86A",
"0. c #003690",
"q. c #003587",
"w. c #1A5B94",
"e. c #065EB5",
"r. c #1369B4",
"t. c #1C77CD",
"y. c #0147E6",
"u. c #559F90",
"i. c #51A293",
"p. c #8E8D8B",
"a. c #938C85",
"s. c #948E88",
"d. c #9A9289",
"f. c #ADA598",
"g. c #B1A7A1",
"h. c #B6ADA6",
"j. c #BAAFAB",
"k. c #BEB3AC",
"l. c #B9B0A7",
"z. c #FEBF8C",
"x. c #F5BF9D",
"c. c #E3B198",
"v. c #C2B8AF",
"b. c #C3B5AD",
"n. c #C5BCB3",
"m. c #C9BEB4",
"M. c #C7BDBA",
"N. c #C9BEB8",
"B. c #C2B7B2",
"V. c #D0BFB8",
"C. c #CDC2B6",
"Z. c #CBC1B6",
"A. c #C7C2BA",
"S. c #CBC1B8",
"D. c #CAC1BA",
"F. c #CCC2B9",
"G. c #CDC2B9",
"H. c #CEC4BA",
"J. c #CEC5BD",
"K. c #CCC2B9",
"L. c #C7C0B6",
"P. c #D1C5BB",
"I. c #D4C9BE",
"U. c #D3C7B7",
"Y. c #EBC7AA",
"T. c #F0CEAB",
"R. c #EED0AE",
"E. c #EECDB1",
"W. c #F2CBB2",
"Q. c #EED0B3",
"!. c #F2D1B5",
"~. c #F4D6B8",
"^. c #F7DBC3",
"/. c #FAECDF",
"(. c #F9E4C7",
"). c #F9EFE3",
/* pixels */
"F.m.S.C.F.S.S.S.v.v.B.n.n.m.U.C.m.F.m.C.D.A.N.N.D.A.m.S.S.F.F.P.",
"S.S.H.H.F.m.L.m.m.B.n.n.m.m.U.C.m.C.m.V.S.n.N.n.S.m.S.F.J.J.S.H.",
"S.S.C.F.S.n.m.m.m.n.n.n.m.U.: . . . f.C.A.n.B.n.S.S.C.J.J.D.S.H.",
"F.H.P.S.n.m.m.m.S.m.n.1 9 p 7 R R ! 1 p d k.n.N.m.C.F.H.D.S.S.S.",
"J.I.I.F.L.m.n.n.S.k.d 5 3 3 | $.*.:.E 6 5 T l.N.m.P.S.S.D.D.N.n.",
"I.J.S.S.S.S.n.S.m.j . ;.$.&.&.@.@.O.;.8.:.. k n.P.F.m.J.D.S.n.S.",
"H.n.n.n.m.m.m.F.s 8 -.&.#.&.@.%.%.@.%.&.#.-.8 s m.F.D.S.N.S.S.m.",
"F.n.n.m.m.n.m.m.p & 8.&.$.| @.o. .%.| ..&.8.& i F.F.S.N.n.n.n.m.",
"m.M.B.m.m.v.m.,.0 E =.+.@.| @. .` %...| +.=.E 0 ,.m.m.n.S.N.A.F.",
"N.n.n.n.m.S.L.  / :.#.` } @.%. .} @.&...} O.;./   m.L.S.S.S.F.P.",
"L.M.n.B.n.C.m.. Q ;.O...` } | } } } } | ..O.;.! . m.N.S.D.D.J.J.",
"S.M.n.n.m.P.m.X Q ;.o.( ` V V ' ' 2.4.{ _  .X.W X m.m.F.D.D.J.S.",
"L.S.n.n.A.S.S.  ^ :.O.( M c l x x l x v c  .;.^   S.m.S.D.S.S.N.",
"C.m.n.n.S.H.n.X W ;.o.l v l x l x l z z c o.;.W X S.S.L.N.n.n.n.",
"S.C.S.N.H.F.N.h.: % c l c c v b v v z l l c > 9 h.L.m.m.B.m.B.B.",
"m.P.S.m.m.N.N.n.a.  m c B Y.~.E.E.!.^.P c c $ a C.m.m.v.v.v.B.m.",
"C.C.m.C.S.S.m.n.a.  B B (.W.W.~.(.Q.T.^.P v < i n.n.m.v.v.v.v.C.",
"m.m.m.C.S.m.n.m.a.  f ~.~.!.!.!.Q.Q.!.Y.c.U 2 p n.n.v.v.v.m.m.C.",
"m.C.m.C.n.n.n.n.n.k.; * I z.3.5.W.K K x.Q.f @ h n.m.m.v.v.m.C.C.",
"S.C.C.S.m.v.v.n.m.m.9 # M ] [ G J [ J L C 2 s.n.B.m.S.m.L.L.C.C.",
"S.C.C.S.n.B.n.m.U.v.; @ n J F H H J H S M $ g.k.v.m.S.m.m.m.C.U.",
"m.C.L.S.n.n.n.m.C.,.. e C H H H J J J G q 1   j m.L.S.n.m.m.C.U.",
"m.m.L.m.m.m.m.C.F.s.  = N ) J G J J J S e -   Y m.S.S.m.S.C.C.P.",
"m.U.m.L.m.m.m.P.P.s.  p.3.F H ) J H H Z >.s.  T L.S.m.S.F.S.S.m.",
"m.m.C.m.m.m.C.U.I.s.  /.9.A H J J H H D 9.).  T m.m.m.C.C.L.C.C.",
"m.m.m.C.m.L.F.I.I.s.  H.6.D J H G J F D 6.I.. Y n.n.m.C.C.m.C.m.",
"m.m.C.V.S.C.I.I.J.A.j.@ u t.w.e.r.r.w.t.y @ g.b.m.m.m.m.v.m.m.m.",
"m.V.C.C.H.F.P.C.S.J.D.Y r q.y.t w t y.0.r T m.n.n.b.b.C.m.m.n.m.",
"m.C.U.P.S.S.C.U.D.H.S.S.h O u.O   . i.+ g H.m.m.n.b.b.m.m.C.m.m.",
"m.C.P.I.S.S.U.P.L.N.S.n.a , $.&   % $.4 s H.N.N.m.m.V.b.m.m.m.m.",
"m.C.I.S.S.S.P.P.m.N.n.v.h.,.* 1.h.d.* T B.J.S.S.m.m.m.m.m.m.m.b.",
"C.P.J.m.C.C.P.C.n.B.B.m.v.v.C.C.S.U.C.C.S.S.A.m.m.v.m.m.V.m.m.m."
};
