/* XPM */
static char *e5889c7f636640ffd7d9127ee5c49ed56ZEKqDqtDGWcSe69[] = {
/* columns rows colors chars-per-pixel */
"32 32 230 2 ",
"   c #020201",
".  c #0D0C02",
"X  c #08080A",
"o  c #1C1C05",
"O  c #01161B",
"+  c #161618",
"@  c #050C12",
"#  c #221409",
"$  c #18210C",
"%  c #292502",
"&  c #2A2706",
"*  c #3A2A05",
"=  c #393718",
"-  c #332617",
";  c #0E1B2B",
":  c #03273F",
">  c #332C27",
",  c #263127",
"<  c #37372E",
"1  c #343538",
"2  c #292F32",
"3  c #631201",
"4  c #663B16",
"5  c #463B39",
"6  c #4C352C",
"7  c #5D2B1E",
"8  c #2A493A",
"9  c #534E01",
"0  c #53531E",
"q  c #4C4C12",
"w  c #7B4A0A",
"e  c #6D6D1D",
"r  c #494423",
"t  c #584725",
"y  c #494639",
"u  c #574938",
"i  c #51533C",
"p  c #7A4529",
"a  c #67512F",
"s  c #001544",
"d  c #002956",
"f  c #1C3049",
"g  c #352B45",
"h  c #253845",
"j  c #2E3C4D",
"k  c #022969",
"l  c #032E72",
"z  c #14366D",
"x  c #364E52",
"c  c #304C6D",
"v  c #1A4770",
"b  c #494746",
"n  c #5A5348",
"m  c #494D54",
"M  c #464A51",
"N  c #4F5358",
"B  c #575659",
"V  c #544A40",
"C  c #675C59",
"Z  c #67625A",
"A  c #7A6847",
"S  c #565A64",
"D  c #465C77",
"F  c #465165",
"G  c #5D6067",
"H  c #6A6968",
"J  c #756E67",
"K  c #79736F",
"L  c #676972",
"P  c #6E747A",
"I  c #777577",
"U  c #873901",
"Y  c #AF5512",
"T  c #BC6522",
"R  c #8B501E",
"E  c #FF5C01",
"W  c #E25B01",
"Q  c #D07200",
"!  c #FE6401",
"~  c #FE6D00",
"^  c #F76103",
"/  c #FE7401",
"(  c #FE7A01",
")  c #915F44",
"_  c #A45847",
"`  c #936850",
"'  c #AB7A56",
"]  c #B46753",
"[  c #847C77",
"{  c #816F61",
"}  c #B67B74",
"|  c #CA785A",
" . c #D37C61",
".. c #9C9A07",
"X. c #88891F",
"o. c #9D9816",
"O. c #B1AC06",
"+. c #949329",
"@. c #A39D2D",
"#. c #9FA134",
"$. c #B4AF34",
"%. c #A2A02F",
"&. c #B09C15",
"*. c #FE8102",
"=. c #ED9F19",
"-. c #C0AE04",
";. c #FFAE00",
":. c #FFB401",
">. c #FEBB01",
",. c #FDB80A",
"<. c #EEAE08",
"1. c #F58D3A",
"2. c #FDA122",
"3. c #DBD308",
"4. c #FFCC02",
"5. c #FFC300",
"6. c #FFD302",
"7. c #F9DC01",
"8. c #FEEC02",
"9. c #FDED08",
"0. c #FFE208",
"q. c #FFFF02",
"w. c #FEF30A",
"e. c #FEFB0A",
"r. c #FEF403",
"t. c #FFFF11",
"y. c #FEFF34",
"u. c #FFFE3B",
"i. c #F3ED32",
"p. c #D7D92D",
"a. c #89827C",
"s. c #8A8178",
"d. c #958462",
"f. c #B29076",
"g. c #FFA847",
"h. c #D4866A",
"j. c #D18F6C",
"k. c #E1977E",
"l. c #FBAF61",
"z. c #E3934A",
"x. c #FFFF52",
"c. c #EAE74E",
"v. c #FAC56B",
"b. c #093C86",
"n. c #003691",
"m. c #033B9B",
"M. c #0139A8",
"N. c #135398",
"B. c #054CB0",
"V. c #156BB7",
"C. c #53779D",
"Z. c #637183",
"A. c #767B82",
"S. c #636F85",
"D. c #0043C7",
"F. c #0048D9",
"G. c #0455CB",
"H. c #166BCC",
"J. c #2B73CF",
"K. c #0047E7",
"L. c #106CF5",
"P. c #867B81",
"I. c #7D8289",
"U. c #7F8992",
"Y. c #54A093",
"T. c #7191AF",
"R. c #2E83D5",
"E. c #0A92FF",
"W. c #2D8AF1",
"Q. c #17A0FF",
"!. c #6D98CC",
"~. c #4B9EEC",
"^. c #76B6FD",
"/. c #87888D",
"(. c #938C86",
"). c #9D948D",
"_. c #999286",
"`. c #878993",
"'. c #8D919B",
"]. c #989696",
"[. c #988F90",
"{. c #A0978E",
"}. c #A49A93",
"|. c #BF9684",
" X c #ACA49A",
".X c #AFA99F",
"XX c #B3A89D",
"oX c #AFA38F",
"OX c #979CA5",
"+X c #9BA2A6",
"@X c #B7ADA3",
"#X c #B9B0A6",
"$X c #BDB3AB",
"%X c #AFB2B7",
"&X c #B7B5B3",
"*X c #A7A8A7",
"=X c #D0AC8B",
"-X c #C5BBAE",
";X c #C3B8AD",
":X c #D1B4A5",
">X c #C5BCB3",
",X c #CABEB4",
"<X c #CBBEB9",
"1X c #C4BCB6",
"2X c #D6BCB5",
"3X c #CEAEA3",
"4X c #E2B2A8",
"5X c #CD9886",
"6X c #CBC1B6",
"7X c #CCC2B9",
"8X c #C9C3B7",
"9X c #D1C3B5",
"0X c #D2C5BB",
"qX c #D3C9BD",
"wX c #E5C6AA",
"eX c #EACBB5",
"rX c #F5CBB2",
"tX c #EFD0B4",
"yX c #F2D1B5",
"uX c #F5D7BA",
"iX c #85A2C2",
"pX c #B5BBC9",
"aX c #C0BFC5",
"sX c #CCCCCF",
"dX c #FCDCC4",
"fX c #EFD9D7",
"gX c #FDE9CA",
"hX c #FFE9DB",
"jX c #FCF7D8",
"kX c #FEF0ED",
/* pixels */
"6X6X6X7X6X7X7X,X-X$X1X-X>X6X9X6X7X0X,X6X<X,X8X<X8X<X6X7X7X7X7X7X",
"7X,X0X7X7X<X,X,X;X8X>X>X,X6X9X0X7X6X,X9X<X,X1X<X7X1X7X7X7X7X0X7X",
"7X6X6X7X6X>X8X,X6X> . X X XXqX8X,X6X,X9X,X1X>X>X6X7X7X7XsX7X6X7X",
"7X7X0X7X1X>Xy b b w ..o.#.< V B 6X,X7X9X>X;X>X>X,X6X6X0X6X8X6X7X",
"7XqXqX6X$XC q 9 9 4.e.t.u.X.0 q s.;XaX9X,X3X>X1X6X6X,X7X,X7X1X,X",
"qX7X7X1X[   u.q.t.e.9.8.8.y.x.u.  H }.@X|.j.2X2X6X6X7X7X<X7X6X,X",
"0X<X8Xn 0 i.9.r.w.9.w.w.9.w.e.e.i.0 b j._ _ 5X*X X7X7X8X1X1X1X,X",
"6X1X>Xb = c...e.4.9.7.6.9.4.6.e.x.= 5 k.| ] j.OXH 1X6X6X<X<X,X,X",
",X>Xa.i X.o.O.9.4.9.6.5.w.6.6.0.y.X.u ` h.] h.].B  X<X8X8X<X<X8X",
"6X1X  $.p.r.q.>.w.e.6.5.9.e.6.5.8.y.$.   ._ h.}./.'.OX7X8X<X7X7X",
"8X<XX %.i.>.:.:.;.;.:.;.:.>.;.5.8.y.@.X | ] h.$XI.`.'.OX7X7XsX9X",
"8XT.X @.&.Q =.,.:.,.,.2.,.,.<.<.7.y.@.X h.3XsXsX+X/.`.`.].7X7X<X",
"7X= X e o 7 4XhXyXeXdXhXfXkX} U 8.y.e . f.sXsXpXm m M N Z.8X8X<X",
",X& @ X.. sXyXgXeXyXtXtXeXeXf.U -.% * % = &X`.L A.P.S.S F +X>X1X",
"7Xb Y.j . [ rXn   dXjXV   uXf.3 * R 9Xy y %X`.P./.%XOX[.> C.;X1X",
"<X+ aXl.* ' wXoXJ uXgXf.J rXk.t ) =XfX< b +XS m &XL m M 5 C iX;X",
"$Xy 8XuXj.a t jXjXyXrXgXjXwXr f.wX}.K + 1 `.m S *XS N - u P.^.,X",
"#XH i ).tX=Xa =XtXyXyXyXtXA A f.:Xr X , M '.I N g m x D J.~.T.,X",
",X@X[ ; O _.=X* hX2XrXrX9Xa ) ' u + X S M A.sXL P B R.Q.~.1X<X6X",
"6X,X-X(.f + X * g.1.` d.1.1.' 4 # 2 1 I N S.iXI I D E.!.>X,X7X9X",
"6X7X6X-X[.v + U / ~ > w / ~ p 4 - pX!.R.R.L.L.D.H.W.T.,X>X,X6X9X",
",X<X-X#X$XD h T ( / b R ( ( t r !.J.G.L.G.M.n.B.W./.,X;X>X-X8X0X",
",X6X{.[ s.Z x Y *./ g p *.( t 2 F.F.m.M.m.b.O m.S.<X X@X$X,X7X0X",
"6X,X#X[ H J , z.! ! 3.=.! ( Y 2 G.n.l d f M.z M [ [.). X$X-X6X8X",
"6X,X,XXX[ Z = v.E ~ 7.>.! / W 2 b.O d B.j S K a.a.(.{.XX#X>X6X6X",
",X>X6X-XXXs.= l.^ / g p *./ ~ , B.; f L [ s.K [ (.{. X@X$X1X6X6X",
",X6X,X6X>X X= V.N.V.V.V.N.H.v - F I (.[.[.}.{.}. X@X@X;X-X,X,X,X",
",X,X6X9X7XXX= z F.l d k K.n.s = ). X.X@X$X#X#X#X;X$X;X>X>X,X>X>X",
",X,X9XqX7XoXr < x 8   o Y.$ . Z -X,X1X1X,X6X>X>X>X-X-X,X,X,X,X,X",
",X,XqXqX6X>X_.n 9 3.o & q.9 % B 2X,X<X1X,XsX,X<X-X,X,X-X,X,X,X,X",
",X9XqX6X<X7X6X;XP.& s.[ % o K ;X7X7X<X7X7X7X8X7X1X,X,X,X,X,X>X-X",
"7XqXqX,X6X6X0X6X1X;X1X;X>X>X6X7X<X7X9X<X7X<X6X6X1X>X-X6X2X,X,X,X"
};
